<?xml version="1.0" encoding="UTF-8"?>
<svg xmlns="http://www.w3.org/2000/svg" version="1.1" viewBox="0 0 1920 1080">
  <defs>
    <style>
      .cls-1 {
        fill: #898b8d;
      }

      .cls-2 {
        fill: #fff;
        opacity: .5;
      }
    </style>
  </defs>
  <!-- Generator: Adobe Illustrator 28.7.1, SVG Export Plug-In . SVG Version: 1.2.0 Build 142)  -->
  <g>
    <g id="Layer_1">
      <circle class="cls-1" cx="433.7" cy="320.5" r="67.8"/>
      <circle class="cls-1" cx="214.5" cy="556.6" r="85.8"/>
      <circle class="cls-1" cx="424.7" cy="792" r="85.8"/>
      <circle class="cls-1" cx="960" cy="816.9" r="63.5"/>
      <circle class="cls-1" cx="1551.7" cy="880.4" r="63.5"/>
      <circle class="cls-1" cx="1663.7" cy="651.1" r="57.9"/>
      <circle class="cls-1" cx="1590.3" cy="440.8" r="57.9"/>
      <circle class="cls-1" cx="1473.5" cy="280.4" r="41.9"/>
      <g>
        <circle class="cls-1" cx="725.4" cy="150.9" r="36.2"/>
        <circle class="cls-1" cx="881.8" cy="150.9" r="36.2"/>
        <circle class="cls-1" cx="1038.2" cy="150.9" r="36.2"/>
        <circle class="cls-1" cx="1194.6" cy="150.9" r="36.2"/>
      </g>
      <circle class="cls-1" cx="960" cy="476.1" r="213.6"/>
      <polygon class="cls-2" points="870.2 550 960 369.4 1049.8 550 870.2 550"/>
      <rect class="cls-1" x="654.9" y="929.5" width="79.1" height="79.1" transform="translate(888.6 -207.2) rotate(45)"/>
      <rect class="cls-1" x="1167.3" y="929.5" width="79.1" height="79.1" transform="translate(1038.7 -569.6) rotate(45)"/>
      <path class="cls-1" d="M1472.9,1080.1c-214.2-286.6-648.5-331.2-923.3-106.2-38.3,31-72.8,66.7-102.5,106.2,27.2-39.4,63.6-76.3,101.2-107.8,273.5-228.2,715.4-183,924.6,107.8h0Z"/>
      <ellipse class="cls-1" cx="433.7" cy="320.5" rx="13" ry="148.5" transform="translate(-17.5 616) rotate(-69.7)"/>
      <ellipse class="cls-1" cx="1473.5" cy="280.4" rx="86.3" ry="5" transform="translate(52.6 760.8) rotate(-29.5)"/>
    </g>
  </g>
</svg>