<?xml version="1.0" encoding="UTF-8"?>
<svg xmlns="http://www.w3.org/2000/svg" version="1.1" viewBox="0 0 800 800">
  <defs>
    <style>
      .cls-1 {
        fill: #35e366;
      }
    </style>
  </defs>
  <!-- Generator: Adobe Illustrator 28.7.1, SVG Export Plug-In . SVG Version: 1.2.0 Build 142)  -->
  <g>
    <g id="Layer_1">
      <path class="cls-1" d="M581.2,528l-50.9-44.1-88.7,76.9,23,20,45.7,39.5c54.7,47.3,54.9,132.1.5,179.7l70.3-60.9c64.2-55.6,64.2-155.4,0-211.1h0ZM530.3,412l50.9-44c64.2-55.7,64.2-155.5,0-211.1L400,0l-181.2,156.8c-64.2,55.6-64.2,155.4,0,211.1l50.9,44,88.7-76.9-23.1-19.9c-32.1-27.8-32.1-77.7,0-105.6l64.6-55.9,64.6,55.9c32.2,27.8,32.2,77.7,0,105.6l-23,19.9-41.6,36-88.7,76.9-41.6,36-50.9,44.1c-64.2,55.6-64.2,155.4,0,211.1l70,60.5c-54-47.6-53.7-132.1.8-179.3l45.7-39.5,23.1-20,41.6-36,88.7-76.9,41.6-36h0Z"/>
    </g>
  </g>
</svg>